<?xml version="1.0" encoding="UTF-8" standalone="no"?>
<svg width="71px" height="54px" viewBox="0 0 71 54" version="1.1" xmlns="http://www.w3.org/2000/svg" xmlns:xlink="http://www.w3.org/1999/xlink" xmlns:sketch="http://www.bohemiancoding.com/sketch/ns">
    <!-- Generator: Sketch 3.3.3 (12081) - http://www.bohemiancoding.com/sketch -->
    <title>more-org-icon</title>
    <desc>Created with Sketch.</desc>
    <defs></defs>
    <g id="Image-Assets" stroke="none" stroke-width="1" fill="none" fill-rule="evenodd" sketch:type="MSPage">
        <path d="M64.1336799,25.3596839 C63.3078111,11.2464042 50.7641045,0 35.4595863,0 C25.2184616,0 16.2174594,5.03840222 11.1311984,12.5984713 L8.49615804,12.5984713 L8.49351948,12.5984713 C3.8091988,12.601759 0,16.1639834 0,20.5415576 C0,24.3717296 2.91648655,27.5772384 6.78285412,28.3219027 C7.60872289,42.4343605 20.1524295,53.6799427 35.4560682,53.6815866 L35.4578272,53.6815866 L35.4595863,53.6815866 C45.6998314,53.6815866 54.6999541,48.6431844 59.7853357,41.0831153 L62.4168579,41.0831153 C67.1029376,41.0831153 70.916534,37.520069 70.916534,33.140029 C70.916534,29.309857 68.0000475,26.1043482 64.1336799,25.3596839 L64.1336799,25.3596839 Z M10.3237995,28.4846439 L22.7936265,28.4846439 L19.0556687,31.9778266 L21.5429498,34.3022314 L28.283587,28.0029957 C28.9713712,27.361072 28.9713712,26.3205146 28.283587,25.6785909 L21.5429498,19.3793552 L19.0556687,21.70376 L22.7936265,25.1969427 L10.3237995,25.1969427 C10.571824,21.8541724 11.5665605,18.7029107 13.1576112,15.8861726 L33.7005474,15.8861726 L33.7005474,37.795414 L13.1576112,37.795414 C11.5665605,34.9786759 10.571824,31.8274142 10.3237995,28.4846439 L10.3237995,28.4846439 Z M44.7077335,12.5984713 L37.2177457,12.5984713 L37.2177457,3.59510136 C40.1078467,4.56250746 42.8466703,7.83870179 44.7077335,12.5984713 L44.7077335,12.5984713 Z M33.7005474,3.58277248 L33.7005474,12.5984713 L26.2052825,12.5984713 C28.0786589,7.76637236 30.7831813,4.52634274 33.7005474,3.58277248 L33.7005474,3.58277248 Z M33.7005474,41.0831153 L33.7005474,50.099636 C30.7823018,49.1568877 28.0777794,45.9160362 26.2052825,41.0831153 L33.7005474,41.0831153 L33.7005474,41.0831153 Z M37.2177457,50.0856633 L37.2177457,41.0831153 L44.7059744,41.0831153 C42.8449112,45.8412409 40.1069671,49.1174353 37.2177457,50.0856633 L37.2177457,50.0856633 Z M37.2177457,37.795414 L37.2177457,15.8861726 L57.7589228,15.8861726 C59.3499735,18.7029107 60.34471,21.8541724 60.5927345,25.1969427 L48.1229075,25.1969427 L51.8608653,21.70376 L49.3735842,19.3793552 L42.632947,25.6785909 C41.9460423,26.3205146 41.9460423,27.361072 42.632947,28.0029957 L49.3735842,34.3022314 L51.8608653,31.9778266 L48.1229075,28.4846439 L60.5927345,28.4846439 C60.34471,31.8274142 59.3499735,34.9786759 57.7589228,37.795414 L37.2177457,37.795414 L37.2177457,37.795414 Z M55.5135096,12.5984713 L48.4298598,12.5984713 C47.3330991,9.44638772 45.9153137,6.80636359 44.2591785,4.77209842 C48.7588001,6.34444156 52.6506738,9.0855625 55.5135096,12.5984713 L55.5135096,12.5984713 Z M26.6591145,4.77209842 C25.0029794,6.80636359 23.5843145,9.44638772 22.4875537,12.5984713 L15.4030244,12.5984713 C18.2667398,9.0855625 22.1594929,6.34361963 26.6591145,4.77209842 L26.6591145,4.77209842 Z M3.51807786,20.5415576 C3.51807786,17.9746849 5.75293682,15.8861726 8.49967611,15.8861726 L9.24814718,15.8861726 C7.90687999,18.6782529 7.06254131,21.7210205 6.81891441,24.91831 C4.8980439,24.2722767 3.51807786,22.5569185 3.51807786,20.5415576 L3.51807786,20.5415576 Z M15.4030244,41.0831153 L22.4875537,41.0831153 C23.5834349,44.2343769 25.0012203,46.8744011 26.6573555,48.9086662 C22.1577339,47.337145 18.2658603,44.5960241 15.4030244,41.0831153 L15.4030244,41.0831153 Z M44.25654,48.9103101 C45.9126751,46.8760449 47.33134,44.2351989 48.4281008,41.0831153 L55.5135096,41.0831153 C52.6497942,44.596846 48.7570411,47.337967 44.25654,48.9103101 L44.25654,48.9103101 Z M62.4168579,37.795414 L61.6683868,37.795414 C63.009654,35.0033337 63.8539927,31.9605661 64.0976196,28.7632766 C66.0184901,29.4093099 67.3984561,31.1246681 67.3984561,33.140029 C67.3984561,35.7069017 65.1635972,37.795414 62.4168579,37.795414 L62.4168579,37.795414 Z" id="more-org-icon" fill="#fff" sketch:type="MSShapeGroup"></path>
    </g>
</svg>
