<?xml version="1.0" encoding="UTF-8" standalone="no"?>
<svg width="68px" height="68px" viewBox="0 0 68 68" version="1.1" xmlns="http://www.w3.org/2000/svg" xmlns:xlink="http://www.w3.org/1999/xlink" xmlns:sketch="http://www.bohemiancoding.com/sketch/ns">
    <!-- Generator: Sketch 3.3.3 (12081) - http://www.bohemiancoding.com/sketch -->
    <title>home-discover</title>
    <desc>Created with Sketch.</desc>
    <defs></defs>
    <g id="Image-Assets" stroke="none" stroke-width="1" fill="#fff" fill-rule="evenodd" sketch:type="MSPage">
        <g id="home-discover" sketch:type="MSLayerGroup" fill="#fff">
            <path d="M33.5578184,60.637153 C18.5491164,60.637153 6.3384844,48.4255622 6.3384844,33.4168601 C6.3384844,18.4081581 18.5491164,6.1975261 33.5578184,6.1975261 C48.5674794,6.1975261 60.7781113,18.4081581 60.7781113,33.4168601 C60.7781113,48.4255622 48.5674794,60.637153 33.5578184,60.637153 L33.5578184,60.637153 Z M33.5578184,10.0331259 C20.6644497,10.0331259 10.1740842,20.5234914 10.1740842,33.4168601 C10.1740842,46.3111878 20.6644497,56.8015532 33.5578184,56.8015532 C46.4521461,56.8015532 56.9425115,46.3111878 56.9425115,33.4168601 C56.9425115,20.5234914 46.4521461,10.0331259 33.5578184,10.0331259 L33.5578184,10.0331259 Z" id="Fill-1" sketch:type="MSShapeGroup"></path>
            <path d="M33.5578184,67.1058921 C15.0788575,67.1058921 0.0442651166,52.0712998 0.0442651166,33.5913799 C0.0442651166,15.112419 15.0788575,0.0797444148 33.5578184,0.0797444148 C52.0377383,0.0797444148 67.0723306,15.112419 67.0723306,33.5913799 C67.0723306,52.0712998 52.0377383,67.1058921 33.5578184,67.1058921 L33.5578184,67.1058921 Z M33.5578184,3.91534422 C17.1941907,3.91534422 3.87986492,17.2277522 3.87986492,33.5913799 C3.87986492,49.9559665 17.1941907,63.2702923 33.5578184,63.2702923 C49.922405,63.2702923 63.2367308,49.9559665 63.2367308,33.5913799 C63.2367308,17.2277522 49.922405,3.91534422 33.5578184,3.91534422 L33.5578184,3.91534422 Z" id="Fill-2" sketch:type="MSShapeGroup"></path>
            <path d="M32.1885093,13.4458508 C32.8702872,12.7631141 33.9749399,12.764073 34.6557589,13.4458508 C35.3375367,14.1266698 35.3375367,15.2322814 34.6567178,15.9131004 C33.9749399,16.5948783 32.8702872,16.5939194 32.1885093,15.9121415 C31.5076903,15.2313225 31.5076903,14.1266698 32.1885093,13.4458508" id="Fill-3" sketch:type="MSShapeGroup"></path>
            <path d="M51.1258244,32.383166 C51.8076023,31.7013881 52.912255,31.702347 53.5940329,32.3841249 C54.2748519,33.0649438 54.2758108,34.1695966 53.5940329,34.8504156 C52.912255,35.5321934 51.8076023,35.5321934 51.1267833,34.8504156 C50.4459644,34.1695966 50.4450055,33.0639849 51.1258244,32.383166" id="Fill-4" sketch:type="MSShapeGroup"></path>
            <path d="M32.2364543,51.2725361 C32.9172733,50.5907583 34.0228849,50.5917172 34.7046628,51.2725361 C35.3854817,51.954314 35.3864406,53.0589667 34.7046628,53.7397857 C34.0228849,54.4225225 32.9172733,54.4215636 32.2374132,53.7388268 C31.5565942,53.0589667 31.5546764,51.9533551 32.2364543,51.2725361" id="Fill-5" sketch:type="MSShapeGroup"></path>
            <path d="M13.5216039,32.5576858 C14.2024229,31.8768668 15.3070756,31.8778257 15.9888535,32.5576858 C16.6706314,33.2404225 16.6706314,34.3441164 15.9888535,35.0258942 C15.3080345,35.7076721 14.2033818,35.7067132 13.5225628,35.0258942 C12.840785,34.3441164 12.8398261,33.2385047 13.5216039,32.5576858" id="Fill-6" sketch:type="MSShapeGroup"></path>
            <path d="M43.1477768,17.5566549 C42.3940815,17.1107665 41.4332637,17.2325467 40.8138144,17.8539139 L30.8172824,27.8801718 C29.7778348,28.3442794 28.8726333,29.0720844 28.1927732,30.0233132 C27.2799004,31.3015268 26.8742858,32.833849 27.0181208,34.3824724 L23.1029322,47.8406332 C22.8574539,48.6815885 23.2141646,49.5829544 23.9688189,50.0269251 C24.2718313,50.2071983 24.6093641,50.2944582 24.9440202,50.2944582 C25.4407303,50.2944582 25.932646,50.1017193 26.3027814,49.730625 L36.4584908,39.5432719 C38.5968377,38.4299891 39.9747769,36.1832865 39.9469688,33.7217903 L44.0136635,19.7429468 C44.2591419,18.9019916 43.9024311,18.0015845 43.1477768,17.5566549 L43.1477768,17.5566549 Z M36.0835609,33.3574083 C36.1516428,33.7687764 36.111369,34.1705555 35.9991777,34.5454854 C35.8831508,34.9309631 35.6827407,35.2800027 35.4132898,35.5734261 C35.027812,35.9953421 34.5119239,36.3041079 33.9049402,36.4047924 C33.206861,36.5198604 32.5059052,36.3578063 31.9305652,35.948356 C31.3542663,35.5369879 30.9735831,34.9261686 30.8575562,34.2280895 C30.7846798,33.79179 30.8326248,33.3574083 30.9697475,32.9498758 C31.0531717,32.7053564 31.1596096,32.4685081 31.3139925,32.2517967 C31.395499,32.1376876 31.4904301,32.037962 31.5863201,31.9401542 C31.9756335,31.5422107 32.4742615,31.2718009 33.0352179,31.1787876 C33.1819296,31.1548151 33.3305591,31.1423494 33.4772708,31.1423494 C33.7160369,31.1423494 33.9500085,31.1807054 34.1782267,31.2439928 C34.472609,31.3254993 34.7545256,31.453033 35.0095929,31.6361829 C35.1371266,31.7272784 35.2521946,31.8317985 35.3595914,31.942072 C35.7383569,32.3265909 35.9924654,32.8137121 36.0835609,33.3574083 L36.0835609,33.3574083 Z" id="Fill-7" sketch:type="MSShapeGroup"></path>
        </g>
    </g>
</svg>
