<?xml version="1.0" encoding="UTF-8" standalone="no"?>
<svg width="68px" height="39px" viewBox="0 0 68 39" version="1.1" xmlns="http://www.w3.org/2000/svg" xmlns:xlink="http://www.w3.org/1999/xlink" xmlns:sketch="http://www.bohemiancoding.com/sketch/ns">
    <!-- Generator: Sketch 3.3.3 (12081) - http://www.bohemiancoding.com/sketch -->
    <title>home-learn</title>
    <desc>Created with Sketch.</desc>
    <defs></defs>
    <g id="Image-Assets" stroke="none" stroke-width="1" fill="none" fill-rule="evenodd" sketch:type="MSPage">
        <path d="M66.8732791,30.8075 L63.7717073,28.3666667 L63.7717073,23.425 C63.7717073,22.7483333 63.3644806,22.1391667 62.7403433,21.8833333 L55.610551,18.95 L55.610551,17.775 L66.3796206,14.1241667 C67.0552846,13.8958333 67.5098826,13.2608333 67.5098826,12.5458333 C67.5098826,11.8308333 67.0552846,11.1958333 66.3796206,10.9666667 L34.2868293,0.0875 C33.9411021,-0.0291666667 33.5679494,-0.0291666667 33.2222222,0.0875 L1.13026197,10.9666667 C0.454598013,11.1958333 0,11.8308333 0,12.5458333 C0,13.2608333 0.454598013,13.8958333 1.13026197,14.1241667 L11.8985005,17.775 L11.8985005,30.5908333 C11.8985005,31.27 12.3090515,31.88 12.9365131,32.1358333 L13.4883469,32.36 C24.0496477,36.6533333 29.4757362,38.8225 34.4513821,38.8225 C39.5325745,38.8225 44.1425474,36.5591667 53.2669196,31.9858333 L54.6913821,31.2725 C55.2548509,30.99 55.610551,30.4125 55.610551,29.7808333 L55.610551,22.5533333 L60.4474074,24.5425 L60.4474074,28.3516667 L57.5137127,30.59 C56.7831978,31.1475 56.641084,32.1925 57.1970732,32.925 C57.5236856,33.3566667 58.0198374,33.5833333 58.5218067,33.5833333 C58.8716893,33.5833333 59.2257272,33.4725 59.5257453,33.2425 L60.4474074,32.54 L60.4474074,33.1891667 C60.4474074,34.11 61.1912195,34.8558333 62.1095574,34.8558333 C63.0270641,34.8558333 63.7717073,34.11 63.7717073,33.1891667 L63.7717073,32.6041667 L64.821355,33.43 C65.5427281,33.9966667 66.5873893,33.8716667 67.1550136,33.1475 C67.7218067,32.4233333 67.5954833,31.3758333 66.8732791,30.8075 L66.8732791,30.8075 Z M33.7549413,3.42583333 L60.6576694,12.5458333 L49.3558808,16.3766667 L34.3857272,10.2175 C33.5380307,9.86833333 32.5648419,10.275 32.2166215,11.1266667 C31.8684011,11.9783333 32.2739657,12.9525 33.1241554,13.3016667 L44.5547606,18.0041667 L33.7549413,21.6658333 L6.85221319,12.5458333 L33.7549413,3.42583333 L33.7549413,3.42583333 Z M52.2870822,28.7508333 L51.7809575,29.0033333 C43.2433243,33.2833333 38.9566396,35.4308333 34.5411382,35.4675 C34.5012466,35.4683333 34.4621861,35.4683333 34.4222945,35.4683333 C31.6780849,35.4683333 28.6695935,34.6716667 24.3862331,33.0933333 L24.3862331,27.4708333 C24.3862331,26.55 23.642421,25.8033333 22.7240831,25.8033333 C21.8065763,25.8033333 21.0619332,26.55 21.0619332,27.4708333 L21.0619332,31.8183333 C20.7070641,31.6783333 20.3488708,31.5366667 19.9782114,31.3891667 L19.9782114,22.7108333 C19.9782114,21.79 19.2335682,21.0441667 18.3160614,21.0441667 C17.3977236,21.0441667 16.6539115,21.79 16.6539115,22.7108333 L16.6539115,30.0491667 C16.1851852,29.8591667 15.7139657,29.6683333 15.2228004,29.4683333 L15.2228004,18.9016667 L33.2222222,25.0041667 C33.3950858,25.0625 33.574598,25.0916667 33.7549413,25.0916667 C33.9352846,25.0916667 34.1139657,25.0625 34.2868293,25.0041667 L49.2436856,19.9333333 L52.2870822,21.185 L52.2870822,28.7508333 L52.2870822,28.7508333 Z" id="home-learn" fill="#fff" sketch:type="MSShapeGroup"></path>
    </g>
</svg>
