<?xml version="1.0" encoding="UTF-8" standalone="no"?>
<svg width="49px" height="61px" viewBox="0 0 49 61" version="1.1" xmlns="http://www.w3.org/2000/svg" xmlns:xlink="http://www.w3.org/1999/xlink" xmlns:sketch="http://www.bohemiancoding.com/sketch/ns">
    <!-- Generator: Sketch 3.3.3 (12081) - http://www.bohemiancoding.com/sketch -->
    <title>home-start</title>
    <desc>Created with Sketch.</desc>
    <defs></defs>
    <g id="Image-Assets" stroke="none" stroke-width="1" fill="none" fill-rule="evenodd" sketch:type="MSPage">
        <g id="home-start" sketch:type="MSLayerGroup" fill="#fff">
            <path d="M48.5008059,35.3659865 L42.2241728,23.0917973 L47.9457464,11.9238514 C48.2075825,11.4135946 48.184455,10.8035946 47.8846238,10.3139459 C47.5847925,9.82347297 47.0512085,9.52506757 46.4763254,9.52506757 L33.1672859,9.5192973 L33.1697639,4.74233784 C33.1697639,3.83145946 32.4305105,3.09368919 31.5186269,3.09286486 L16.9152745,3.08627027 L16.9161005,1.66348649 C16.9169265,0.752608108 16.1776731,0.0140135135 15.2649636,0.0140135135 C15.2649636,0.0140135135 15.2649636,0.0140135135 15.2641376,0.0140135135 C14.352254,0.0140135135 13.6130006,0.750959459 13.6121746,1.66183784 L13.6105227,4.7307973 L13.6105227,4.73327027 L13.5997849,29.6748514 L13.5997849,29.678973 L13.5898731,51.6554595 L6.75487646,51.6521622 L6.75405048,51.6521622 C5.84216694,51.6521622 5.10208754,52.3899324 5.10208754,53.2999865 C5.10126156,54.2108649 5.84051498,54.9486351 6.7532245,54.9494595 L24.203735,54.9577027 L24.204561,54.9577027 C25.1164445,54.9577027 25.855698,54.2199324 25.8565239,53.3098784 C25.8565239,52.399 25.1172705,51.6612297 24.205387,51.6604054 L16.893799,51.6571081 L16.9028848,31.3251486 L22.7838729,31.3276216 L22.7813949,36.1054054 C22.7813949,37.0154595 23.5206483,37.7548784 24.4325319,37.7548784 L47.028907,37.7639459 L47.029733,37.7639459 C47.6046161,37.7639459 48.1382001,37.4663649 48.4380314,36.9767162 C48.7386886,36.4878919 48.7626421,35.8770676 48.5008059,35.3659865 L48.5008059,35.3659865 Z M16.9045368,28.0278514 L16.9144485,6.38356757 L29.865012,6.38933784 L29.8559262,28.0336216 L26.0886247,28.031973 L22.7846989,28.0303243 L16.9045368,28.0278514 L16.9045368,28.0278514 Z M26.0869728,32.7495811 L26.0877988,31.3292703 L27.5134428,31.3300946 L26.0869728,32.7495811 L26.0869728,32.7495811 Z M29.0481163,34.4592297 L32.673349,30.8503378 L32.674175,30.8495135 C32.7534692,30.7703784 32.8228517,30.685473 32.8823223,30.5956216 C32.9170136,30.5436892 32.941793,30.4868108 32.9707023,30.4315811 C32.9913519,30.3911892 33.0169573,30.3524459 33.0343029,30.3112297 C33.0615603,30.2452838 33.0780799,30.1752162 33.0962515,30.105973 C33.1053373,30.0713514 33.120205,30.0383784 33.1268128,30.0037568 C33.1474624,29.8990676 33.1590261,29.7919054 33.1590261,29.6839189 L33.16646,12.8165946 L43.7761919,12.8215405 L38.8979454,22.3408378 C38.6567588,22.811527 38.6567588,23.3695946 38.8979454,23.8402838 L44.3312515,34.4658243 L29.0481163,34.4592297 L29.0481163,34.4592297 Z" id="Fill-1" sketch:type="MSShapeGroup"></path>
            <path d="M28.0296812,57.3441216 L1.79568372,57.3334054 C1.79568372,57.3334054 1.79568372,57.3334054 1.79485773,57.3334054 C0.882974192,57.3334054 0.142894794,58.0703514 0.142894794,58.9812297 C0.142068813,59.8912838 0.88214821,60.6307027 1.79403175,60.6307027 L28.0280292,60.6414189 L28.0288552,60.6414189 C28.9407388,60.6414189 29.6808182,59.904473 29.6808182,58.9935946 C29.6816441,58.0835405 28.9423907,57.3441216 28.0296812,57.3441216" id="Fill-2" sketch:type="MSShapeGroup"></path>
        </g>
    </g>
</svg>
