<?xml version="1.0" encoding="UTF-8" standalone="no"?>
<svg width="194px" height="34px" viewBox="0 0 194 34" version="1.1" xmlns="http://www.w3.org/2000/svg" xmlns:xlink="http://www.w3.org/1999/xlink" xmlns:sketch="http://www.bohemiancoding.com/sketch/ns">
    <!-- Generator: Sketch 3.4 (15588) - http://www.bohemiancoding.com/sketch -->
    <title>LC_StartupNext_Sml_Logos_RGB_REVERSE-WHT_rgb</title>
    <desc>Created with Sketch.</desc>
    <defs>
        <path id="path-1" d="M0.06,0.04 L193.83,0.04 L193.83,34 L0.06,34"></path>
    </defs>
    <g id="Page-1" stroke="none" stroke-width="1" fill="none" fill-rule="evenodd" sketch:type="MSPage">
        <g id="LC_StartupNext_Sml_Logos_RGB_REVERSE-WHT_rgb" sketch:type="MSLayerGroup">
            <path d="M60.082,10.606 C60.082,9.286 61.143,8.642 62.351,8.582 L62.351,6.617 C60.347,6.687 59.992,7.866 59.992,7.866 L59.992,6.629 L57.615,6.629 L57.615,14.112 L60.082,14.112 L60.082,10.606" id="Fill-1" fill="#FFFFFF" sketch:type="MSShapeGroup"></path>
            <path d="M41.736,14.172 C42.227,14.032 42.663,13.816 43.044,13.525 C43.425,13.235 43.729,12.866 43.954,12.419 C44.18,11.973 44.293,11.444 44.293,10.833 C44.293,10.301 44.188,9.857 43.977,9.501 C43.766,9.145 43.5,8.846 43.18,8.606 C42.859,8.365 42.503,8.172 42.111,8.027 C41.72,7.881 41.344,7.748 40.983,7.628 C40.733,7.548 40.507,7.47 40.306,7.395 C40.105,7.32 39.933,7.237 39.787,7.147 C39.642,7.056 39.532,6.951 39.456,6.831 C39.381,6.711 39.344,6.56 39.344,6.38 C39.344,6.169 39.391,5.996 39.486,5.86 C39.582,5.725 39.7,5.615 39.84,5.529 C39.98,5.444 40.138,5.386 40.314,5.357 C40.489,5.327 40.662,5.311 40.833,5.311 C41.164,5.311 41.507,5.394 41.863,5.559 C42.219,5.725 42.508,5.948 42.728,6.229 L44.368,4.499 C43.896,4.068 43.347,3.742 42.721,3.521 C42.094,3.301 41.48,3.19 40.878,3.19 C40.376,3.19 39.88,3.253 39.389,3.378 C38.897,3.504 38.456,3.702 38.065,3.973 C37.674,4.244 37.358,4.589 37.117,5.011 C36.876,5.432 36.756,5.938 36.756,6.53 C36.756,7.011 36.834,7.42 36.989,7.756 C37.145,8.092 37.35,8.378 37.606,8.614 C37.862,8.849 38.153,9.042 38.479,9.193 C38.805,9.343 39.138,9.473 39.479,9.584 C39.83,9.694 40.143,9.797 40.419,9.892 C40.695,9.988 40.925,10.093 41.111,10.208 C41.297,10.324 41.439,10.451 41.54,10.592 C41.64,10.732 41.69,10.903 41.69,11.103 C41.69,11.314 41.65,11.494 41.57,11.645 C41.49,11.795 41.382,11.916 41.246,12.006 C41.111,12.096 40.953,12.162 40.773,12.201 C40.592,12.242 40.407,12.262 40.216,12.262 C39.795,12.262 39.371,12.154 38.945,11.938 C38.519,11.723 38.175,11.454 37.915,11.133 L36.23,12.848 C36.701,13.34 37.293,13.719 38.005,13.984 C38.716,14.25 39.454,14.383 40.216,14.383 C40.738,14.383 41.244,14.312 41.736,14.172" id="Fill-2" fill="#FFFFFF" sketch:type="MSShapeGroup"></path>
            <path d="M63.051,12.716 C63.141,13.043 63.289,13.325 63.495,13.561 C63.7,13.798 63.974,13.978 64.315,14.104 C64.656,14.23 65.077,14.292 65.578,14.292 C65.748,14.292 65.918,14.282 66.087,14.263 L66.087,14.264 C66.518,14.236 67.127,14.083 67.688,13.913 C67.28,13.328 66.977,12.262 66.977,12.262 C66.887,12.302 66.774,12.332 66.639,12.352 C66.504,12.372 66.376,12.382 66.255,12.382 C65.904,12.382 65.661,12.294 65.526,12.118 C65.391,11.941 65.322,11.677 65.322,11.325 L65.322,8.456 L66.911,8.456 L66.911,6.62 L65.322,6.62 L65.322,4.65 L62.901,4.65 L62.916,11.623 C62.916,12.025 62.961,12.389 63.051,12.716" id="Fill-3" fill="#FFFFFF" sketch:type="MSShapeGroup"></path>
            <path d="M68.147,13.352 C68.363,13.638 68.644,13.871 68.99,14.052 C69.336,14.232 69.76,14.322 70.261,14.322 C70.522,14.322 70.77,14.287 71.006,14.217 C71.241,14.147 71.457,14.057 71.652,13.947 C71.848,13.836 72.019,13.706 72.164,13.555 C72.309,13.405 72.427,13.244 72.517,13.074 L72.547,13.074 L72.547,14.112 L74.924,14.112 L74.924,6.62 L72.457,6.62 L72.457,10.667 C72.457,11.098 72.344,11.474 72.119,11.795 C71.894,12.116 71.564,12.277 71.133,12.277 C70.903,12.277 70.717,12.234 70.577,12.149 C70.436,12.063 70.324,11.946 70.239,11.795 C70.154,11.645 70.096,11.474 70.065,11.283 C70.035,11.093 70.02,10.893 70.02,10.682 L70.02,6.62 L67.538,6.62 L67.538,11.254 C67.538,11.635 67.586,12.009 67.681,12.374 C67.776,12.741 67.932,13.067 68.147,13.352" id="Fill-4" fill="#FFFFFF" sketch:type="MSShapeGroup"></path>
            <path d="M78.203,9.644 C78.288,9.413 78.409,9.208 78.564,9.027 C78.72,8.846 78.908,8.701 79.129,8.591 C79.349,8.481 79.6,8.425 79.881,8.425 C80.172,8.425 80.427,8.481 80.648,8.591 C80.868,8.701 81.051,8.845 81.197,9.02 C81.342,9.195 81.453,9.398 81.528,9.629 C81.603,9.86 81.641,10.095 81.641,10.336 C81.641,10.577 81.603,10.815 81.528,11.051 C81.453,11.286 81.342,11.494 81.197,11.675 C81.051,11.855 80.868,12.001 80.648,12.111 C80.427,12.222 80.172,12.277 79.881,12.277 C79.6,12.277 79.349,12.222 79.129,12.111 C78.908,12.001 78.72,11.855 78.564,11.675 C78.409,11.494 78.288,11.289 78.203,11.058 C78.118,10.828 78.076,10.592 78.076,10.351 C78.076,10.11 78.118,9.875 78.203,9.644 M78.166,13.238 L78.196,13.285 C78.426,13.606 78.747,13.858 79.159,14.044 C79.57,14.23 80.006,14.322 80.467,14.322 C81.029,14.322 81.53,14.212 81.971,13.992 C82.413,13.771 82.786,13.478 83.092,13.111 C83.398,12.745 83.631,12.322 83.792,11.84 C83.952,11.359 84.032,10.857 84.032,10.336 C84.032,9.815 83.95,9.315 83.784,8.839 C83.619,8.363 83.383,7.944 83.077,7.583 C82.771,7.222 82.398,6.936 81.956,6.726 C81.515,6.515 81.024,6.41 80.482,6.41 C79.93,6.41 79.452,6.523 79.046,6.748 C78.64,6.974 78.321,7.237 78.09,7.538 L78.046,7.595 L78.046,6.62 L75.698,6.62 L75.698,16.742 L78.166,16.742 L78.166,13.238" id="Fill-5" fill="#FFFFFF" sketch:type="MSShapeGroup"></path>
            <path d="M44.053,8.456 L45.256,8.456 L45.256,11.623 C45.256,12.025 45.302,12.39 45.392,12.716 C45.482,13.043 45.63,13.325 45.835,13.561 C46.041,13.797 46.314,13.978 46.655,14.104 C46.996,14.23 47.418,14.292 47.919,14.292 C48.18,14.292 48.441,14.27 48.701,14.225 C48.936,14.184 49.266,14.094 49.457,14.016 C49.146,13.553 48.924,12.989 48.779,12.374 C48.418,12.42 48.002,12.294 47.867,12.118 C47.731,11.941 47.664,11.677 47.664,11.325 L47.664,8.456 L49.279,8.456 L49.279,6.62 L47.664,6.62 L47.664,4.65 L45.241,4.65 L45.241,6.62 L44.053,6.62 L44.053,8.456" id="Fill-6" fill="#FFFFFF" sketch:type="MSShapeGroup"></path>
            <path d="M54.303,10.847 L54.303,11.103 C54.303,11.575 54.17,11.948 53.905,12.224 C53.639,12.5 53.256,12.638 52.754,12.638 C52.634,12.638 52.508,12.625 52.378,12.6 C52.248,12.575 52.132,12.532 52.032,12.472 C51.932,12.412 51.849,12.332 51.784,12.231 C51.719,12.131 51.686,12.011 51.686,11.87 C51.686,11.65 51.756,11.472 51.897,11.336 C52.037,11.201 52.215,11.098 52.431,11.028 C52.646,10.958 52.892,10.91 53.168,10.885 C53.443,10.86 53.717,10.847 53.988,10.847 L54.303,10.847 L54.303,10.847 Z M52.559,9.509 C51.987,9.569 51.468,9.689 51.001,9.87 C50.535,10.05 50.154,10.306 49.858,10.637 C49.562,10.968 49.414,11.404 49.414,11.945 C49.414,12.387 49.499,12.758 49.67,13.059 C49.84,13.36 50.059,13.601 50.325,13.781 C50.59,13.962 50.884,14.092 51.205,14.172 C51.525,14.252 51.836,14.292 52.137,14.292 C52.589,14.292 53.007,14.207 53.394,14.037 C53.78,13.866 54.068,13.626 54.258,13.315 L54.303,13.315 L54.303,14.112 L56.56,14.112 L56.56,10.336 C56.56,9.654 56.497,9.065 56.372,8.568 C56.247,8.072 56.049,7.661 55.778,7.335 C55.507,7.009 55.154,6.768 54.717,6.613 C54.281,6.457 53.747,6.379 53.115,6.379 C52.503,6.379 51.904,6.485 51.317,6.696 C50.73,6.906 50.217,7.222 49.775,7.643 L51.024,8.982 C51.255,8.771 51.533,8.591 51.859,8.441 C52.185,8.29 52.523,8.215 52.875,8.215 C53.256,8.215 53.576,8.303 53.837,8.478 C54.098,8.654 54.229,8.927 54.229,9.298 L54.229,9.418 C53.687,9.418 53.13,9.448 52.559,9.509 L52.559,9.509 Z" id="Fill-7" fill="#FFFFFF" sketch:type="MSShapeGroup"></path>
            <path d="M43.846,27.152 L39.582,20.225 L39.537,20.225 L39.597,27.152 L37.114,27.152 L37.114,16.56 L40.031,16.56 L44.28,23.471 L44.325,23.471 L44.265,16.56 L46.748,16.56 L46.748,27.152 L43.846,27.152" id="Fill-8" fill="#FFFFFF" sketch:type="MSShapeGroup"></path>
            <path d="M53.031,22.574 C53.031,22.185 52.909,21.851 52.665,21.571 C52.42,21.292 52.053,21.152 51.565,21.152 C51.326,21.152 51.106,21.19 50.907,21.264 C50.707,21.339 50.533,21.441 50.383,21.571 C50.234,21.701 50.114,21.853 50.024,22.027 C49.934,22.202 49.884,22.384 49.875,22.574 L53.031,22.574 L53.031,22.574 Z M55.29,23.516 L55.29,23.815 C55.29,23.915 55.285,24.01 55.275,24.1 L49.875,24.1 C49.894,24.309 49.957,24.499 50.062,24.668 C50.166,24.838 50.301,24.984 50.466,25.109 C50.63,25.234 50.814,25.331 51.019,25.401 C51.223,25.471 51.435,25.506 51.655,25.506 C52.044,25.506 52.373,25.434 52.642,25.289 C52.912,25.144 53.13,24.957 53.3,24.728 L55.006,25.805 C54.657,26.314 54.196,26.705 53.622,26.979 C53.048,27.253 52.382,27.391 51.625,27.391 C51.066,27.391 50.537,27.303 50.039,27.129 C49.54,26.954 49.104,26.7 48.73,26.366 C48.356,26.032 48.062,25.62 47.848,25.132 C47.633,24.643 47.526,24.084 47.526,23.456 C47.526,22.848 47.631,22.297 47.84,21.803 C48.049,21.309 48.334,20.89 48.693,20.547 C49.052,20.202 49.475,19.936 49.964,19.746 C50.453,19.557 50.982,19.462 51.55,19.462 C52.098,19.462 52.602,19.554 53.061,19.739 C53.52,19.923 53.914,20.19 54.243,20.539 C54.572,20.888 54.828,21.312 55.013,21.811 C55.198,22.309 55.29,22.878 55.29,23.516 L55.29,23.516 Z" id="Fill-9" fill="#FFFFFF" sketch:type="MSShapeGroup"></path>
            <path d="M61.274,27.152 L59.673,24.863 L58.027,27.152 L55.185,27.152 L58.162,23.247 L55.469,19.701 L58.327,19.701 L59.718,21.691 L61.124,19.701 L63.892,19.701 L61.214,23.247 L64.161,27.152 L61.274,27.152" id="Fill-10" fill="#FFFFFF" sketch:type="MSShapeGroup"></path>
            <path d="M67.736,21.526 L67.736,24.38 C67.736,24.73 67.804,24.993 67.938,25.168 C68.073,25.344 68.315,25.431 68.664,25.431 C68.784,25.431 68.911,25.421 69.046,25.401 C69.18,25.381 69.293,25.351 69.382,25.311 L69.412,27.106 C69.242,27.167 69.028,27.219 68.769,27.264 C68.509,27.309 68.25,27.331 67.991,27.331 C67.492,27.331 67.073,27.268 66.734,27.143 C66.395,27.018 66.123,26.838 65.919,26.603 C65.715,26.368 65.567,26.088 65.478,25.763 C65.388,25.439 65.343,25.076 65.343,24.676 L65.343,21.526 L64.146,21.526 L64.146,19.701 L65.328,19.701 L65.328,17.742 L67.736,17.742 L67.736,19.701 L69.487,19.701 L69.487,21.526 L67.736,21.526" id="Fill-11" fill="#FFFFFF" sketch:type="MSShapeGroup"></path>
            <path d="M97.898,10.945 L98.532,10.945 C99.156,10.945 99.608,10.844 99.886,10.642 C100.165,10.441 100.305,10.118 100.305,9.673 C100.305,9.273 100.174,8.975 99.911,8.778 C99.649,8.582 99.24,8.484 98.685,8.484 L97.898,8.484 L97.898,10.945 L97.898,10.945 Z M101.034,9.64 C101.034,10.253 100.825,10.725 100.406,11.055 C99.988,11.385 99.389,11.55 98.611,11.55 L97.898,11.55 L97.898,13.931 L97.194,13.931 L97.194,7.875 L98.764,7.875 C100.277,7.875 101.034,8.464 101.034,9.64 L101.034,9.64 Z" id="Fill-12" fill="#FFFFFF" sketch:type="MSShapeGroup"></path>
            <path d="M102.267,11.657 C102.267,12.237 102.383,12.679 102.615,12.983 C102.847,13.287 103.187,13.438 103.638,13.438 C104.088,13.438 104.429,13.287 104.663,12.985 C104.896,12.682 105.013,12.24 105.013,11.657 C105.013,11.08 104.896,10.642 104.663,10.342 C104.429,10.043 104.085,9.893 103.629,9.893 C103.179,9.893 102.84,10.04 102.61,10.336 C102.381,10.632 102.267,11.072 102.267,11.657 L102.267,11.657 Z M105.725,11.657 C105.725,12.398 105.539,12.975 105.166,13.391 C104.793,13.807 104.278,14.014 103.621,14.014 C103.215,14.014 102.855,13.919 102.54,13.728 C102.225,13.538 101.982,13.264 101.811,12.908 C101.64,12.552 101.554,12.135 101.554,11.657 C101.554,10.917 101.739,10.341 102.109,9.928 C102.479,9.515 102.993,9.309 103.65,9.309 C104.285,9.309 104.79,9.52 105.164,9.943 C105.538,10.365 105.725,10.937 105.725,11.657 L105.725,11.657 Z" id="Fill-13" fill="#FFFFFF" sketch:type="MSShapeGroup"></path>
            <path d="M110.345,13.931 L109.513,11.268 C109.46,11.105 109.362,10.735 109.219,10.158 L109.185,10.158 C109.075,10.641 108.978,11.014 108.895,11.276 L108.038,13.931 L107.243,13.931 L106.004,9.391 L106.725,9.391 C107.018,10.532 107.241,11.401 107.394,11.997 C107.547,12.593 107.635,12.995 107.657,13.202 L107.69,13.202 C107.721,13.045 107.77,12.841 107.837,12.591 C107.905,12.341 107.963,12.143 108.013,11.997 L108.846,9.391 L109.591,9.391 L110.403,11.997 C110.558,12.472 110.663,12.871 110.718,13.194 L110.751,13.194 C110.762,13.095 110.792,12.941 110.84,12.734 C110.889,12.527 111.176,11.413 111.704,9.391 L112.416,9.391 L111.161,13.931 L110.345,13.931" id="Fill-14" fill="#FFFFFF" sketch:type="MSShapeGroup"></path>
            <path d="M114.672,9.884 C114.307,9.884 114.017,10.003 113.8,10.241 C113.583,10.478 113.456,10.807 113.417,11.226 L115.79,11.226 C115.79,10.793 115.694,10.461 115.5,10.23 C115.307,10 115.031,9.884 114.672,9.884 L114.672,9.884 Z M114.858,14.014 C114.187,14.014 113.658,13.81 113.27,13.401 C112.882,12.993 112.688,12.425 112.688,11.699 C112.688,10.967 112.868,10.386 113.228,9.955 C113.589,9.524 114.073,9.309 114.68,9.309 C115.249,9.309 115.699,9.496 116.031,9.87 C116.362,10.244 116.528,10.738 116.528,11.351 L116.528,11.786 L113.4,11.786 C113.414,12.319 113.549,12.723 113.804,12.999 C114.059,13.276 114.419,13.414 114.883,13.414 C115.372,13.414 115.855,13.312 116.333,13.107 L116.333,13.72 C116.09,13.825 115.86,13.9 115.643,13.946 C115.426,13.992 115.165,14.014 114.858,14.014 L114.858,14.014 Z" id="Fill-15" fill="#FFFFFF" sketch:type="MSShapeGroup"></path>
            <path d="M119.476,9.309 C119.677,9.309 119.858,9.325 120.018,9.358 L119.923,9.996 C119.735,9.955 119.57,9.934 119.426,9.934 C119.059,9.934 118.745,10.083 118.484,10.382 C118.223,10.68 118.092,11.051 118.092,11.496 L118.092,13.931 L117.405,13.931 L117.405,9.391 L117.972,9.391 L118.051,10.232 L118.084,10.232 C118.252,9.937 118.455,9.709 118.693,9.549 C118.93,9.389 119.191,9.309 119.476,9.309" id="Fill-16" fill="#FFFFFF" sketch:type="MSShapeGroup"></path>
            <path d="M122.254,9.884 C121.889,9.884 121.599,10.003 121.382,10.241 C121.165,10.478 121.037,10.807 120.999,11.226 L123.372,11.226 C123.372,10.793 123.275,10.461 123.082,10.23 C122.889,10 122.613,9.884 122.254,9.884 L122.254,9.884 Z M122.44,14.014 C121.769,14.014 121.239,13.81 120.852,13.401 C120.464,12.993 120.27,12.425 120.27,11.699 C120.27,10.967 120.45,10.386 120.81,9.955 C121.171,9.524 121.654,9.309 122.262,9.309 C122.831,9.309 123.281,9.496 123.612,9.87 C123.944,10.244 124.109,10.738 124.109,11.351 L124.109,11.786 L120.982,11.786 C120.996,12.319 121.13,12.723 121.386,12.999 C121.641,13.276 122.001,13.414 122.465,13.414 C122.954,13.414 123.437,13.312 123.915,13.107 L123.915,13.72 C123.672,13.825 123.442,13.9 123.225,13.946 C123.008,13.992 122.747,14.014 122.44,14.014 L122.44,14.014 Z" id="Fill-17" fill="#FFFFFF" sketch:type="MSShapeGroup"></path>
            <path d="M126.751,13.438 C127.22,13.438 127.56,13.311 127.772,13.055 C127.983,12.8 128.089,12.388 128.089,11.819 L128.089,11.674 C128.089,11.031 127.981,10.571 127.767,10.297 C127.553,10.022 127.212,9.884 126.742,9.884 C126.339,9.884 126.03,10.041 125.816,10.355 C125.602,10.668 125.495,11.111 125.495,11.682 C125.495,12.262 125.602,12.7 125.814,12.995 C126.027,13.291 126.339,13.438 126.751,13.438 L126.751,13.438 Z M128.126,13.323 L128.089,13.323 C127.771,13.784 127.296,14.014 126.664,14.014 C126.07,14.014 125.608,13.811 125.278,13.405 C124.948,12.999 124.783,12.422 124.783,11.674 C124.783,10.925 124.949,10.344 125.28,9.93 C125.611,9.516 126.073,9.309 126.664,9.309 C127.279,9.309 127.752,9.532 128.08,9.98 L128.134,9.98 L128.105,9.652 L128.089,9.333 L128.089,7.486 L128.776,7.486 L128.776,13.931 L128.217,13.931 L128.126,13.323 L128.126,13.323 Z" id="Fill-18" fill="#FFFFFF" sketch:type="MSShapeGroup"></path>
            <path d="M134.281,9.893 C133.812,9.893 133.474,10.027 133.266,10.297 C133.059,10.566 132.956,11.019 132.956,11.657 C132.956,12.295 133.062,12.752 133.275,13.026 C133.487,13.301 133.828,13.438 134.298,13.438 C134.72,13.438 135.035,13.285 135.242,12.977 C135.449,12.669 135.553,12.226 135.553,11.649 C135.553,11.058 135.449,10.618 135.242,10.328 C135.035,10.038 134.715,9.893 134.281,9.893 L134.281,9.893 Z M134.381,9.317 C134.977,9.317 135.44,9.521 135.77,9.928 C136.1,10.335 136.265,10.912 136.265,11.657 C136.265,12.403 136.099,12.982 135.766,13.395 C135.433,13.808 134.972,14.014 134.381,14.014 C134.085,14.014 133.815,13.96 133.571,13.851 C133.327,13.742 133.121,13.574 132.956,13.347 L132.906,13.347 L132.761,13.931 L132.268,13.931 L132.268,7.486 L132.956,7.486 L132.956,9.052 C132.956,9.403 132.945,9.717 132.923,9.996 L132.956,9.996 C133.276,9.543 133.751,9.317 134.381,9.317 L134.381,9.317 Z" id="Fill-19" fill="#FFFFFF" sketch:type="MSShapeGroup"></path>
            <path d="M136.44,9.391 L137.178,9.391 L138.172,11.981 C138.39,12.571 138.525,12.998 138.578,13.26 L138.611,13.26 C138.647,13.12 138.722,12.879 138.837,12.538 C138.951,12.197 139.326,11.148 139.961,9.391 L140.699,9.391 L138.748,14.561 C138.554,15.072 138.329,15.434 138.07,15.648 C137.812,15.862 137.495,15.969 137.12,15.969 C136.91,15.969 136.703,15.946 136.498,15.899 L136.498,15.348 C136.65,15.381 136.82,15.398 137.008,15.398 C137.48,15.398 137.817,15.133 138.019,14.602 L138.271,13.956 L136.44,9.391" id="Fill-20" fill="#FFFFFF" sketch:type="MSShapeGroup"></path>
            <path d="M89.765,2.188 L89.984,2.188 L89.984,31.541 L89.765,31.541 L89.765,2.188 Z" id="Fill-21" fill="#FFFFFF" sketch:type="MSShapeGroup"></path>
            <path d="M129.36,22.162 L128.185,22.162 L128.185,26.233 L127.486,26.233 L127.486,22.162 L126.661,22.162 L126.661,21.846 L127.486,21.593 L127.486,21.336 C127.486,20.203 127.982,19.636 128.972,19.636 C129.217,19.636 129.503,19.685 129.831,19.783 L129.65,20.343 C129.381,20.256 129.151,20.212 128.96,20.212 C128.696,20.212 128.501,20.3 128.375,20.476 C128.248,20.651 128.185,20.932 128.185,21.32 L128.185,21.619 L129.36,21.619 L129.36,22.162" id="Fill-22" fill="#FFFFFF" sketch:type="MSShapeGroup"></path>
            <path d="M130.354,23.922 C130.354,24.511 130.471,24.96 130.707,25.269 C130.943,25.578 131.29,25.732 131.747,25.732 C132.205,25.732 132.552,25.578 132.789,25.271 C133.026,24.964 133.145,24.514 133.145,23.922 C133.145,23.335 133.026,22.889 132.789,22.585 C132.552,22.28 132.202,22.128 131.739,22.128 C131.281,22.128 130.936,22.278 130.703,22.579 C130.47,22.879 130.354,23.327 130.354,23.922 L130.354,23.922 Z M133.869,23.922 C133.869,24.674 133.68,25.261 133.301,25.684 C132.922,26.106 132.398,26.317 131.73,26.317 C131.318,26.317 130.951,26.22 130.631,26.027 C130.311,25.833 130.064,25.555 129.89,25.193 C129.716,24.831 129.629,24.407 129.629,23.922 C129.629,23.169 129.817,22.583 130.194,22.164 C130.57,21.744 131.092,21.534 131.76,21.534 C132.405,21.534 132.918,21.749 133.299,22.178 C133.679,22.608 133.869,23.189 133.869,23.922 L133.869,23.922 Z" id="Fill-23" fill="#FFFFFF" sketch:type="MSShapeGroup"></path>
            <path d="M136.895,21.534 C137.1,21.534 137.284,21.551 137.447,21.585 L137.35,22.233 C137.159,22.191 136.99,22.17 136.845,22.17 C136.471,22.17 136.152,22.322 135.887,22.625 C135.621,22.928 135.489,23.306 135.489,23.757 L135.489,26.233 L134.79,26.233 L134.79,21.619 L135.367,21.619 L135.447,22.473 L135.48,22.473 C135.652,22.173 135.858,21.941 136.099,21.778 C136.341,21.616 136.606,21.534 136.895,21.534" id="Fill-24" fill="#FFFFFF" sketch:type="MSShapeGroup"></path>
            <path d="M143.914,26.233 L140.482,26.233 L140.482,20.077 L143.914,20.077 L143.914,20.713 L141.198,20.713 L141.198,22.696 L143.75,22.696 L143.75,23.328 L141.198,23.328 L141.198,25.593 L143.914,25.593 L143.914,26.233" id="Fill-25" fill="#FFFFFF" sketch:type="MSShapeGroup"></path>
            <path d="M147.929,26.233 L147.929,23.248 C147.929,22.872 147.844,22.591 147.673,22.406 C147.501,22.221 147.233,22.128 146.868,22.128 C146.386,22.128 146.032,22.259 145.807,22.52 C145.583,22.781 145.471,23.212 145.471,23.812 L145.471,26.233 L144.772,26.233 L144.772,21.619 L145.34,21.619 L145.454,22.25 L145.487,22.25 C145.631,22.023 145.831,21.847 146.09,21.722 C146.348,21.597 146.635,21.534 146.953,21.534 C147.508,21.534 147.927,21.668 148.207,21.936 C148.488,22.205 148.628,22.633 148.628,23.223 L148.628,26.233 L147.929,26.233" id="Fill-26" fill="#FFFFFF" sketch:type="MSShapeGroup"></path>
            <path d="M151.268,25.74 C151.392,25.74 151.511,25.731 151.626,25.713 C151.741,25.695 151.832,25.676 151.9,25.656 L151.9,26.191 C151.824,26.228 151.712,26.258 151.565,26.281 C151.418,26.305 151.285,26.317 151.167,26.317 C150.275,26.317 149.828,25.847 149.828,24.907 L149.828,22.162 L149.167,22.162 L149.167,21.825 L149.828,21.534 L150.123,20.549 L150.527,20.549 L150.527,21.619 L151.866,21.619 L151.866,22.162 L150.527,22.162 L150.527,24.877 C150.527,25.155 150.593,25.369 150.725,25.517 C150.857,25.666 151.038,25.74 151.268,25.74" id="Fill-27" fill="#FFFFFF" sketch:type="MSShapeGroup"></path>
            <path d="M154.691,21.534 C154.896,21.534 155.079,21.551 155.242,21.585 L155.145,22.233 C154.954,22.191 154.786,22.17 154.64,22.17 C154.267,22.17 153.948,22.322 153.682,22.625 C153.417,22.928 153.284,23.306 153.284,23.757 L153.284,26.233 L152.586,26.233 L152.586,21.619 L153.162,21.619 L153.242,22.473 L153.276,22.473 C153.447,22.173 153.654,21.941 153.895,21.778 C154.136,21.616 154.402,21.534 154.691,21.534" id="Fill-28" fill="#FFFFFF" sketch:type="MSShapeGroup"></path>
            <path d="M157.514,22.119 C157.144,22.119 156.848,22.24 156.628,22.482 C156.408,22.723 156.278,23.057 156.239,23.484 L158.651,23.484 C158.651,23.043 158.553,22.706 158.356,22.471 C158.16,22.237 157.879,22.119 157.514,22.119 L157.514,22.119 Z M157.704,26.317 C157.022,26.317 156.483,26.11 156.089,25.694 C155.695,25.279 155.498,24.702 155.498,23.964 C155.498,23.22 155.681,22.629 156.047,22.191 C156.413,21.753 156.905,21.534 157.523,21.534 C158.101,21.534 158.558,21.725 158.895,22.105 C159.232,22.485 159.4,22.987 159.4,23.61 L159.4,24.052 L156.222,24.052 C156.236,24.594 156.373,25.005 156.632,25.286 C156.892,25.566 157.257,25.707 157.729,25.707 C158.226,25.707 158.717,25.603 159.203,25.395 L159.203,26.018 C158.956,26.125 158.722,26.201 158.502,26.248 C158.281,26.294 158.015,26.317 157.704,26.317 L157.704,26.317 Z" id="Fill-29" fill="#FFFFFF" sketch:type="MSShapeGroup"></path>
            <path d="M162.338,22.128 C161.867,22.128 161.526,22.259 161.315,22.52 C161.104,22.781 160.996,23.196 160.991,23.766 L160.991,23.922 C160.991,24.57 161.099,25.034 161.315,25.313 C161.531,25.592 161.878,25.732 162.355,25.732 C162.753,25.732 163.066,25.571 163.292,25.248 C163.518,24.925 163.631,24.48 163.631,23.913 C163.631,23.338 163.518,22.896 163.292,22.589 C163.066,22.282 162.748,22.128 162.338,22.128 L162.338,22.128 Z M162.439,26.317 C162.139,26.317 161.864,26.262 161.616,26.151 C161.368,26.04 161.159,25.87 160.991,25.639 L160.94,25.639 C160.974,25.909 160.991,26.164 160.991,26.406 L160.991,28.304 L160.292,28.304 L160.292,21.619 L160.86,21.619 L160.957,22.25 L160.991,22.25 C161.17,21.997 161.38,21.815 161.618,21.703 C161.857,21.591 162.13,21.534 162.439,21.534 C163.051,21.534 163.523,21.743 163.856,22.162 C164.189,22.58 164.355,23.167 164.355,23.922 C164.355,24.679 164.186,25.268 163.848,25.688 C163.509,26.107 163.04,26.317 162.439,26.317 L162.439,26.317 Z" id="Fill-30" fill="#FFFFFF" sketch:type="MSShapeGroup"></path>
            <path d="M167.383,21.534 C167.588,21.534 167.771,21.551 167.934,21.585 L167.837,22.233 C167.646,22.191 167.478,22.17 167.332,22.17 C166.959,22.17 166.64,22.322 166.374,22.625 C166.109,22.928 165.976,23.306 165.976,23.757 L165.976,26.233 L165.278,26.233 L165.278,21.619 L165.854,21.619 L165.934,22.473 L165.968,22.473 C166.139,22.173 166.346,21.941 166.587,21.778 C166.828,21.616 167.094,21.534 167.383,21.534" id="Fill-31" fill="#FFFFFF" sketch:type="MSShapeGroup"></path>
            <path d="M170.206,22.119 C169.836,22.119 169.54,22.24 169.32,22.482 C169.1,22.723 168.97,23.057 168.931,23.484 L171.343,23.484 C171.343,23.043 171.245,22.706 171.048,22.471 C170.852,22.237 170.571,22.119 170.206,22.119 L170.206,22.119 Z M170.396,26.317 C169.714,26.317 169.175,26.11 168.781,25.694 C168.387,25.279 168.19,24.702 168.19,23.964 C168.19,23.22 168.373,22.629 168.739,22.191 C169.105,21.753 169.597,21.534 170.215,21.534 C170.793,21.534 171.25,21.725 171.587,22.105 C171.924,22.485 172.092,22.987 172.092,23.61 L172.092,24.052 L168.914,24.052 C168.928,24.594 169.065,25.005 169.324,25.286 C169.584,25.566 169.949,25.707 170.421,25.707 C170.918,25.707 171.409,25.603 171.895,25.395 L171.895,26.018 C171.648,26.125 171.414,26.201 171.194,26.248 C170.973,26.294 170.707,26.317 170.396,26.317 L170.396,26.317 Z" id="Fill-32" fill="#FFFFFF" sketch:type="MSShapeGroup"></path>
            <path d="M176.142,26.233 L176.142,23.248 C176.142,22.872 176.056,22.591 175.885,22.406 C175.714,22.221 175.446,22.128 175.081,22.128 C174.598,22.128 174.244,22.259 174.02,22.52 C173.795,22.781 173.683,23.212 173.683,23.812 L173.683,26.233 L172.984,26.233 L172.984,21.619 L173.552,21.619 L173.666,22.25 L173.7,22.25 C173.843,22.023 174.043,21.847 174.302,21.722 C174.56,21.597 174.848,21.534 175.165,21.534 C175.721,21.534 176.139,21.668 176.419,21.936 C176.7,22.205 176.84,22.633 176.84,23.223 L176.84,26.233 L176.142,26.233" id="Fill-33" fill="#FFFFFF" sketch:type="MSShapeGroup"></path>
            <path d="M179.742,22.119 C179.372,22.119 179.076,22.24 178.856,22.482 C178.635,22.723 178.506,23.057 178.466,23.484 L180.879,23.484 C180.879,23.043 180.781,22.706 180.584,22.471 C180.388,22.237 180.107,22.119 179.742,22.119 L179.742,22.119 Z M179.932,26.317 C179.249,26.317 178.711,26.11 178.317,25.694 C177.923,25.279 177.725,24.702 177.725,23.964 C177.725,23.22 177.909,22.629 178.275,22.191 C178.641,21.753 179.133,21.534 179.751,21.534 C180.329,21.534 180.786,21.725 181.123,22.105 C181.46,22.485 181.628,22.987 181.628,23.61 L181.628,24.052 L178.45,24.052 C178.464,24.594 178.6,25.005 178.86,25.286 C179.12,25.566 179.485,25.707 179.957,25.707 C180.454,25.707 180.945,25.603 181.43,25.395 L181.43,26.018 C181.183,26.125 180.95,26.201 180.729,26.248 C180.509,26.294 180.243,26.317 179.932,26.317 L179.932,26.317 Z" id="Fill-34" fill="#FFFFFF" sketch:type="MSShapeGroup"></path>
            <path d="M183.168,21.619 L183.168,24.612 C183.168,24.988 183.254,25.269 183.425,25.454 C183.596,25.639 183.864,25.732 184.229,25.732 C184.712,25.732 185.065,25.6 185.288,25.336 C185.511,25.072 185.623,24.642 185.623,24.044 L185.623,21.619 L186.321,21.619 L186.321,26.233 L185.745,26.233 L185.644,25.614 L185.606,25.614 C185.463,25.842 185.264,26.016 185.01,26.136 C184.756,26.257 184.466,26.317 184.141,26.317 C183.579,26.317 183.159,26.184 182.88,25.917 C182.6,25.651 182.461,25.224 182.461,24.637 L182.461,21.619 L183.168,21.619" id="Fill-35" fill="#FFFFFF" sketch:type="MSShapeGroup"></path>
            <path d="M189.571,21.534 C189.775,21.534 189.959,21.551 190.122,21.585 L190.025,22.233 C189.834,22.191 189.666,22.17 189.52,22.17 C189.147,22.17 188.827,22.322 188.562,22.625 C188.297,22.928 188.164,23.306 188.164,23.757 L188.164,26.233 L187.465,26.233 L187.465,21.619 L188.042,21.619 L188.122,22.473 L188.156,22.473 C188.327,22.173 188.533,21.941 188.775,21.778 C189.016,21.616 189.281,21.534 189.571,21.534" id="Fill-36" fill="#FFFFFF" sketch:type="MSShapeGroup"></path>
            <path d="M193.829,24.974 C193.829,25.404 193.669,25.735 193.349,25.968 C193.029,26.201 192.58,26.317 192.002,26.317 C191.39,26.317 190.913,26.22 190.57,26.027 L190.57,25.378 C190.792,25.491 191.03,25.579 191.284,25.644 C191.538,25.708 191.783,25.74 192.019,25.74 C192.384,25.74 192.664,25.682 192.861,25.566 C193.057,25.449 193.155,25.272 193.155,25.033 C193.155,24.854 193.078,24.7 192.922,24.572 C192.766,24.444 192.462,24.294 192.01,24.12 C191.581,23.96 191.276,23.82 191.094,23.7 C190.913,23.581 190.779,23.446 190.69,23.294 C190.602,23.143 190.558,22.962 190.558,22.751 C190.558,22.375 190.711,22.078 191.017,21.861 C191.323,21.643 191.742,21.534 192.275,21.534 C192.772,21.534 193.258,21.635 193.732,21.837 L193.484,22.406 C193.021,22.215 192.601,22.119 192.225,22.119 C191.894,22.119 191.644,22.171 191.476,22.275 C191.307,22.379 191.223,22.522 191.223,22.705 C191.223,22.828 191.255,22.934 191.318,23.021 C191.381,23.108 191.483,23.19 191.623,23.269 C191.763,23.348 192.033,23.461 192.431,23.61 C192.979,23.809 193.348,24.01 193.541,24.212 C193.733,24.414 193.829,24.668 193.829,24.974" id="Fill-37" fill="#FFFFFF" sketch:type="MSShapeGroup"></path>
            <path d="M96.715,22.879 C96.715,20.963 98.326,19.403 100.242,19.403 C101.302,19.403 102.056,19.818 102.624,20.361 L101.955,21.031 C101.548,20.649 100.997,20.352 100.242,20.352 C98.843,20.352 97.749,21.48 97.749,22.879 C97.749,24.278 98.843,25.406 100.242,25.406 C101.149,25.406 101.666,25.041 101.997,24.71 C102.268,24.439 102.446,24.049 102.514,23.515 L100.242,23.515 L100.242,22.565 L103.438,22.565 C103.472,22.735 103.489,22.938 103.489,23.159 C103.489,23.871 103.294,24.753 102.667,25.38 C102.056,26.016 101.276,26.355 100.242,26.355 C98.326,26.355 96.715,24.795 96.715,22.879" id="Fill-38" fill="#FFFFFF" sketch:type="MSShapeGroup"></path>
            <path d="M106.072,25.473 C105.394,25.473 104.809,24.914 104.809,24.117 C104.809,23.311 105.394,22.76 106.072,22.76 C106.751,22.76 107.336,23.311 107.336,24.117 C107.336,24.914 106.751,25.473 106.072,25.473 L106.072,25.473 Z M106.072,21.879 C104.835,21.879 103.826,22.82 103.826,24.117 C103.826,25.406 104.835,26.355 106.072,26.355 C107.31,26.355 108.319,25.406 108.319,24.117 C108.319,22.82 107.31,21.879 106.072,21.879 L106.072,21.879 Z" id="Fill-39" fill="#FFFFFF" sketch:type="MSShapeGroup"></path>
            <path d="M110.974,25.473 C110.296,25.473 109.711,24.914 109.711,24.117 C109.711,23.311 110.296,22.76 110.974,22.76 C111.652,22.76 112.237,23.311 112.237,24.117 C112.237,24.914 111.652,25.473 110.974,25.473 L110.974,25.473 Z M110.974,21.879 C109.736,21.879 108.727,22.82 108.727,24.117 C108.727,25.406 109.736,26.355 110.974,26.355 C112.212,26.355 113.221,25.406 113.221,24.117 C113.221,22.82 112.212,21.879 110.974,21.879 L110.974,21.879 Z" id="Fill-40" fill="#FFFFFF" sketch:type="MSShapeGroup"></path>
            <path d="M115.862,25.473 C115.184,25.473 114.616,24.905 114.616,24.125 C114.616,23.337 115.184,22.76 115.862,22.76 C116.532,22.76 117.058,23.337 117.058,24.125 C117.058,24.905 116.532,25.473 115.862,25.473 L115.862,25.473 Z M116.99,22.014 L116.99,22.379 L116.956,22.379 C116.736,22.116 116.312,21.879 115.778,21.879 C114.658,21.879 113.633,22.862 113.633,24.125 C113.633,25.38 114.658,26.355 115.778,26.355 C116.312,26.355 116.736,26.118 116.956,25.846 L116.99,25.846 L116.99,26.169 C116.99,27.025 116.532,27.483 115.795,27.483 C115.193,27.483 114.82,27.05 114.667,26.686 L113.811,27.042 C114.056,27.635 114.709,28.365 115.795,28.365 C116.948,28.365 117.923,27.686 117.923,26.033 L117.923,22.014 L116.99,22.014 L116.99,22.014 Z" id="Fill-41" fill="#FFFFFF" sketch:type="MSShapeGroup"></path>
            <path d="M118.601,19.64 L119.584,19.64 L119.584,26.219 L118.601,26.219 L118.601,19.64 Z" id="Fill-42" fill="#FFFFFF" sketch:type="MSShapeGroup"></path>
            <path d="M122.204,22.743 C122.594,22.743 122.925,22.938 123.035,23.218 L121.034,24.049 C121.009,23.184 121.704,22.743 122.204,22.743 L122.204,22.743 Z M122.281,25.473 C121.78,25.473 121.424,25.245 121.195,24.795 L124.188,23.557 L124.087,23.303 C123.9,22.803 123.332,21.879 122.17,21.879 C121.017,21.879 120.059,22.786 120.059,24.117 C120.059,25.372 121.009,26.355 122.281,26.355 C123.306,26.355 123.9,25.728 124.146,25.363 L123.383,24.854 C123.128,25.228 122.781,25.473 122.281,25.473 L122.281,25.473 Z" id="Fill-43" fill="#FFFFFF" sketch:type="MSShapeGroup"></path>
            <g id="Group-47">
                <mask id="mask-2" sketch:name="Clip 45" fill="white">
                    <use xlink:href="#path-1"></use>
                </mask>
                <g id="Clip-45"></g>
                <path d="M25.439,9.839 C25.791,9.487 25.794,8.919 25.449,8.564 C25.093,8.218 24.525,8.222 24.174,8.574 C23.822,8.925 23.819,9.493 24.165,9.848 C24.52,10.194 25.088,10.191 25.439,9.839" id="Fill-44" fill="#FFFFFF" sketch:type="MSShapeGroup" mask="url(#mask-2)"></path>
                <path d="M28.328,17 L28.328,17 C28.328,16.502 28.297,16.008 28.233,15.521 L31.683,17 L28.328,17 L28.328,17 Z M16.999,27.018 C11.475,27.018 6.981,22.524 6.981,17 C6.981,11.476 11.475,6.981 16.999,6.981 C18.465,6.981 19.858,7.298 21.115,7.866 L20.298,8.052 C19.757,8.162 19.357,8.488 19.121,8.812 C18.433,8.634 17.723,8.544 16.999,8.544 C15.858,8.544 14.751,8.767 13.708,9.208 C12.701,9.634 11.796,10.244 11.02,11.02 C10.243,11.797 9.634,12.701 9.208,13.708 C9.129,13.895 9.057,14.083 8.992,14.274 C12.765,15.477 16.988,14.877 20.311,12.475 C20.323,12.506 20.513,12.954 20.786,13.226 C21.059,13.499 21.48,13.68 21.496,13.686 C19.098,17.014 18.504,21.239 19.714,25.011 C19.909,24.945 20.101,24.872 20.291,24.791 C21.298,24.365 22.202,23.756 22.979,22.979 C23.755,22.203 24.365,21.299 24.791,20.292 C25.232,19.249 25.456,18.141 25.456,17 C25.456,16.283 25.367,15.58 25.193,14.898 C25.519,14.662 25.85,14.26 25.961,13.715 L26.144,12.909 C26.705,14.159 27.018,15.543 27.018,17 C27.018,22.524 22.524,27.018 16.999,27.018 L16.999,27.018 Z M24.217,25.734 C24.491,25.506 24.756,25.265 25.01,25.011 C25.265,24.756 25.506,24.492 25.733,24.217 L26.145,26.146 L24.217,25.734 L24.217,25.734 Z M16.999,31.684 L16.999,28.329 C17.498,28.329 17.991,28.297 18.478,28.234 L16.999,31.684 L16.999,31.684 Z M7.854,26.146 L8.266,24.217 C8.493,24.492 8.734,24.756 8.988,25.011 C9.243,25.265 9.508,25.506 9.782,25.734 L7.854,26.146 L7.854,26.146 Z M9.782,8.266 C9.507,8.494 9.243,8.735 8.988,8.989 C8.734,9.243 8.493,9.508 8.266,9.782 L7.854,7.854 L9.782,8.266 L9.782,8.266 Z M16.999,2.317 L16.999,5.671 C16.501,5.671 16.008,5.703 15.521,5.766 L16.999,2.317 L16.999,2.317 Z M22.229,8.32 C23.738,7.22 25.636,6.604 27.385,6.627 C27.408,8.377 26.793,10.274 25.692,11.783 L25.286,13.571 C25.17,14.162 24.68,14.406 24.675,14.409 L23.637,15.017 C23.625,15.024 23.612,15.029 23.598,15.033 C23.38,14.351 23.058,13.695 22.63,13.091 C22.163,13.217 21.644,13.099 21.274,12.739 C20.913,12.368 20.796,11.85 20.921,11.382 C20.318,10.955 19.662,10.632 18.98,10.415 C18.984,10.401 18.989,10.388 18.996,10.376 L19.603,9.337 C19.607,9.332 19.851,8.843 20.442,8.726 L22.229,8.32 L22.229,8.32 Z M2.316,17 L5.67,17 C5.67,17.498 5.702,17.992 5.766,18.479 L2.316,17 L2.316,17 Z M33.598,16.395 L27.916,13.96 C27.787,13.495 27.627,13.038 27.438,12.59 C27.254,12.154 27.044,11.733 26.809,11.327 C27.641,9.876 28.096,8.208 28.075,6.618 L28.066,5.946 L27.394,5.938 C27.36,5.937 27.326,5.937 27.291,5.937 C25.737,5.937 24.107,6.39 22.691,7.202 C22.279,6.962 21.852,6.748 21.409,6.561 C20.961,6.372 20.504,6.212 20.04,6.083 L17.605,0.403 C17.501,0.159 17.263,0.001 16.999,0.001 C16.735,0.001 16.498,0.159 16.394,0.403 L13.959,6.083 C13.494,6.212 13.037,6.372 12.589,6.561 C12.124,6.758 11.675,6.984 11.244,7.239 L7.145,6.362 C6.925,6.315 6.699,6.382 6.54,6.541 C6.381,6.7 6.315,6.926 6.362,7.146 L7.238,11.245 C6.984,11.676 6.758,12.125 6.561,12.59 C6.371,13.038 6.212,13.495 6.082,13.96 L0.401,16.395 C0.158,16.499 0.001,16.737 0.001,17 C0.001,17.264 0.158,17.501 0.401,17.605 L6.083,20.041 C6.212,20.505 6.371,20.962 6.561,21.41 C6.758,21.875 6.984,22.324 7.238,22.755 L6.362,26.854 C6.315,27.074 6.382,27.3 6.54,27.459 C6.665,27.584 6.833,27.652 7.006,27.652 C7.052,27.652 7.099,27.647 7.145,27.638 L11.244,26.761 C11.675,27.016 12.124,27.242 12.589,27.438 C13.037,27.628 13.494,27.787 13.959,27.917 L16.394,33.598 C16.498,33.841 16.735,33.998 16.999,33.998 C17.263,33.998 17.501,33.841 17.604,33.599 L20.04,27.917 C20.505,27.787 20.961,27.628 21.409,27.438 C21.874,27.242 22.323,27.016 22.754,26.761 L26.854,27.638 C26.9,27.647 26.947,27.652 26.993,27.652 C27.166,27.652 27.333,27.584 27.458,27.459 C27.617,27.3 27.684,27.074 27.637,26.854 L26.761,22.755 C27.015,22.324 27.241,21.875 27.438,21.41 C27.627,20.962 27.787,20.505 27.916,20.041 L33.598,17.605 C33.841,17.501 33.998,17.264 33.998,17 C33.998,16.737 33.841,16.499 33.598,16.395 L33.598,16.395 Z" id="Fill-46" fill="#FFFFFF" sketch:type="MSShapeGroup" mask="url(#mask-2)"></path>
            </g>
        </g>
    </g>
</svg>